# xmcd
#
# Track frame offsets: 
#        150
#        11996
#        24960
#        44169
#        63175
#        77203
#        100308
#        117490
#        136945
#        153206
#        178569
#
# Disc length: 2605 seconds
#
# Revision: 2
# Processed by: cddbd v1.4PL0 Copyright (c) Steve Scherf et al.
# Submitted via: ExactAudioCopy v0.90b4
#
DISCID=8d0a2b0b
DTITLE=Ian Tyson - Cowboyography
DYEAR=1986
DGENRE=
TTITLE0=Springtime
TTITLE1=Navajo Rug
TTITLE2=Summer Wages
TTITLE3=Fifty Years Ago
TTITLE4=Rockies Turn Rose
TTITLE5=Claude Dallas
TTITLE6=Own Heart's Delight
TTITLE7=The Gift
TTITLE8=Cowboy Pride
TTITLE9=Old Cheyenne
TTITLE10=The Coyote and The Cowboy
EXTD=
EXTT0=
EXTT1=
EXTT2=
EXTT3=Rockies Turn Rose\nClaude Dallas\nOwn Heart's Delight\nThe Gift\n
EXTT3=Cowboy Pride\nOld Cheyenne\nThe Coyote and The Cowboy\n
EXTT4=
EXTT5=
EXTT6=
EXTT7=
EXTT8=
EXTT9=
EXTT10=
PLAYORDER=
